{"title":"Big.Brother.AU.S11E53.PDTV.x264-NoGRP","uid":11520842,"size":321453472,"categoryP":"video","categoryS":"tv_shows","magnet":"?xt=urn:btih:3a5216c804e3810fe517d18570c2eec1a1ab197f&amp;dn=Big.Brother.AU.S11E53.PDTV.x264-NoGRP&amp;tr=udp%3A%2F%2Ftracker.openbittorrent.com%3A80&amp;tr=udp%3A%2F%2Fopen.demonii.com%3A1337&amp;tr=udp%3A%2F%2Ftracker.coppersurfer.tk%3A6969&amp;tr=udp%3A%2F%2Fexodus.desync.com%3A6969","seeders":1,"leechers":0,"uploader":"whowhatwhen2","files":1,"time":1416490306,"description":"\nFormat                                   : MPEG-4\nFile size                                : 307 MiB\nDuration                                 : 47mn 27s\nOverall bit rate mode                    : Variable\nOverall bit rate                         : 903 Kbps\n\n\nVideo\nID                                       : 1\nFormat                                   : AVC\nFormat/Info                              : Advanced Video Codec\nFormat profile                           : &lt;a class=&quot;__cf_email__&quot; href=&quot;/cdn-cgi/l/email-protection&quot; data-cfemail=&quot;e5ad8c828da5a9d6cbd4&quot;&gt;[email&amp;#160;protected]&lt;/a&gt;&lt;script cf-hash='f9e31' type=&quot;text/javascript&quot;&gt;\n/* &lt;![CDATA[ */!function(){try{var t=&quot;currentScript&quot;in document?document.currentScript:function(){for(var t=document.getElementsByTagName(&quot;script&quot;),e=t.length;e--;)if(t[e].getAttribute(&quot;cf-hash&quot;))return t[e]}();if(t&amp;&amp;t.previousSibling){var e,r,n,i,c=t.previousSibling,a=c.getAttribute(&quot;data-cfemail&quot;);if(a){for(e=&quot;&quot;,r=parseInt(a.substr(0,2),16),n=2;a.length-n;n+=2)i=parseInt(a.substr(n,2),16)^r,e+=String.fromCharCode(i);e=document.createTextNode(e),c.parentNode.replaceChild(e,c)}}}catch(u){}}();/* ]]&gt; */&lt;/script&gt;\nFormat settings, CABAC                   : Yes\nFormat settings, ReFrames                : 4 frames\nCodec ID/Info                            : Advanced Video Coding\nDuration                                 : 47mn 27s\nBit rate                                 : 739 Kbps\nWidth                                    : 720 pixels\nHeight                                   : 400 pixels\nDisplay aspect ratio                     : 16:9\nFrame rate mode                          : Variable\nFrame rate                               : 25.000 fps\nMinimum frame rate                       : 25.000 fps\nScan type                                : Progressive\nBits/(Pixel*Frame)                       : 0.103\nStream size                              : 251 MiB (82%)\nWriting library                          : x264 core 130 r2273 b3065e6\n\n\nAudio\nID                                       : 2\nFormat                                   : AAC\nFormat profile                           : LC\nCodec ID                                 : 40\nDuration                                 : 47mn 27s\nBit rate mode                            : Variable\nBit rate                                 : 160 Kbps\nMaximum bit rate                         : 191 Kbps\nChannel(s)                               : 2 channels\nChannel positions                        : Front: L R\nSampling rate                            : 48.0 KHz\nCompression mode                         : Lossy\nStream size                              : 54.3 MiB (18%)\nLanguage                                 : English","torrent":{"xt":"urn:btih:3a5216c804e3810fe517d18570c2eec1a1ab197f","amp;dn":"Big.Brother.AU.S11E53.PDTV.x264-NoGRP","amp;tr":["udp%3A%2F%2Ftracker.openbittorrent.com%3A80","udp%3A%2F%2Fopen.demonii.com%3A1337","udp%3A%2F%2Ftracker.coppersurfer.tk%3A6969","udp%3A%2F%2Fexodus.desync.com%3A6969"],"infoHash":"3a5216c804e3810fe517d18570c2eec1a1ab197f","infoHashBuffer":{"type":"Buffer","data":[58,82,22,200,4,227,129,15,229,23,209,133,112,194,238,193,161,171,25,127]},"announce":[],"urlList":[]}}